<?xml version="1.0" standalone="no"?>
<!DOCTYPE svg PUBLIC "-//W3C//DTD SVG 20010904//EN"
 "http://www.w3.org/TR/2001/REC-SVG-20010904/DTD/svg10.dtd">
<svg version="1.0" xmlns="http://www.w3.org/2000/svg"
 width="2000.000000pt" height="2000.000000pt" viewBox="0 0 2000.000000 2000.000000"
 preserveAspectRatio="xMidYMid meet">
<metadata>
Created by potrace 1.11, written by Peter Selinger 2001-2013
</metadata>
<g transform="translate(0.000000,2000.000000) scale(0.100000,-0.100000)"
fill="#000000" stroke="none">
<path d="M10437 17058 c-59 -79 -187 -337 -310 -628 -38 -89 -77 -201 -77
-219 0 -33 45 -75 129 -121 81 -43 81 -43 81 -83 0 -93 -72 -300 -317 -912
-204 -508 -211 -523 -277 -612 -106 -145 -255 -205 -511 -206 -111 -1 -283 9
-335 18 -8 1 -44 6 -80 10 -36 4 -72 9 -80 10 -18 3 -95 13 -170 20 -30 4 -66
8 -80 10 -50 7 -379 36 -470 40 -97 6 -402 6 -485 1 -311 -20 -517 -76 -794
-218 -86 -44 -276 -163 -307 -191 -7 -7 -32 -28 -56 -47 -70 -56 -250 -238
-320 -325 -316 -389 -555 -883 -1032 -2130 -42 -110 -87 -227 -101 -260 -28
-71 -599 -1552 -657 -1705 -22 -58 -44 -114 -49 -125 -10 -24 -103 -263 -169
-435 -26 -69 -141 -366 -255 -660 -114 -294 -249 -645 -301 -780 -52 -135 -98
-254 -103 -265 -5 -11 -44 -110 -86 -220 -126 -330 -206 -538 -221 -572 -8
-17 -14 -34 -14 -38 0 -3 -8 -25 -19 -48 -37 -84 -38 -81 31 -129 76 -51 311
-204 353 -228 209 -122 345 -198 470 -262 149 -75 393 -183 470 -208 22 -7 45
-16 50 -20 20 -15 410 -139 485 -155 8 -2 69 -17 135 -33 155 -40 328 -79 385
-87 25 -4 65 -10 90 -15 25 -5 72 -11 105 -15 33 -4 71 -8 85 -11 145 -25 844
-25 1025 1 17 2 48 6 70 9 107 14 138 18 240 33 61 8 126 17 145 19 29 4 239
40 345 59 96 18 208 41 345 72 85 19 162 36 170 38 8 2 62 15 120 30 58 15
115 29 128 31 13 3 42 11 65 18 46 15 153 46 177 51 34 7 414 127 525 165 182
64 598 221 660 250 11 5 89 39 174 75 343 148 981 460 1326 649 33 18 96 53
140 76 44 24 132 72 195 108 63 36 131 74 150 85 606 338 1467 907 1875 1237
59 48 73 66 89 111 18 53 205 525 231 584 20 46 121 306 171 440 25 66 50 131
56 145 43 103 189 552 202 623 2 12 9 40 14 62 12 44 17 68 33 165 25 154 32
375 15 484 -17 117 -58 273 -91 351 -106 253 -218 439 -391 645 -128 153 -344
363 -524 510 -30 25 -57 47 -60 50 -10 11 -242 191 -400 310 -236 177 -308
235 -369 293 -206 198 -291 450 -235 697 5 23 270 710 384 996 63 157 134 302
163 331 31 30 89 37 156 17 31 -9 61 -20 68 -26 7 -5 39 -12 71 -15 52 -5 61
-3 83 18 97 91 307 618 339 848 l7 53 -55 35 c-86 55 -342 173 -657 303 -82
34 -163 68 -180 75 -16 7 -88 36 -160 65 -71 28 -139 55 -150 60 -60 26 -699
270 -709 270 -3 0 -25 9 -49 19 -121 55 -882 318 -1001 346 -85 20 -92 19
-119 -17z"/>
<path d="M18928 9905 c-2 -1 -47 -6 -100 -9 -53 -4 -105 -8 -115 -10 -10 -2
-45 -7 -78 -10 -33 -4 -67 -9 -75 -11 -8 -2 -33 -6 -55 -10 -44 -6 -76 -12
-115 -20 -14 -3 -38 -8 -55 -10 -249 -44 -1108 -333 -1491 -501 -16 -7 -82
-35 -145 -62 -108 -47 -145 -64 -314 -142 -85 -39 -486 -239 -500 -250 -5 -4
-46 -26 -90 -50 -204 -109 -553 -320 -962 -582 -46 -29 -118 -75 -160 -103
-74 -47 -214 -139 -703 -460 -118 -77 -263 -172 -322 -210 -60 -39 -179 -116
-265 -173 -432 -282 -1246 -785 -1428 -882 -16 -9 -97 -55 -180 -102 -159 -90
-226 -126 -450 -244 -77 -40 -178 -93 -225 -118 -115 -61 -871 -438 -940 -469
-30 -14 -91 -42 -135 -63 -44 -21 -82 -38 -85 -39 -3 -1 -21 -8 -40 -17 -19
-9 -89 -39 -155 -67 -66 -28 -129 -55 -140 -60 -11 -5 -54 -23 -95 -39 -41
-16 -84 -33 -95 -37 -11 -4 -24 -9 -30 -11 -5 -2 -41 -15 -80 -30 -150 -57
-523 -179 -605 -199 -8 -2 -69 -18 -134 -35 -183 -49 -484 -116 -611 -136 -16
-3 -52 -9 -80 -14 -55 -10 -89 -16 -150 -25 -22 -4 -51 -8 -65 -10 -14 -3 -43
-7 -65 -10 -22 -4 -51 -8 -65 -10 -35 -6 -254 -33 -320 -40 -30 -3 -71 -8 -90
-10 -19 -2 -64 -7 -100 -10 -36 -4 -81 -8 -100 -10 -19 -2 -73 -7 -120 -10
-47 -4 -101 -8 -120 -10 -112 -11 -319 -19 -480 -19 -177 0 -447 10 -473 19
-6 2 -46 6 -87 10 -41 3 -88 8 -105 10 -70 9 -191 27 -210 31 -11 2 -36 6 -55
9 -19 3 -46 7 -60 10 -14 3 -36 7 -50 10 -14 3 -36 7 -50 10 -14 3 -38 8 -55
11 -16 2 -46 9 -65 14 -19 5 -46 11 -60 13 -14 3 -43 10 -65 15 -22 6 -51 13
-65 16 -24 4 -160 41 -265 72 -27 8 -57 16 -66 18 -46 11 -460 157 -524 185
-22 10 -87 38 -145 62 -234 97 -566 272 -810 427 -176 112 -761 552 -1085 817
-716 584 -1119 891 -1315 1002 -109 62 -126 70 -210 103 -72 28 -98 34 -170
34 -103 1 -143 -18 -180 -84 -21 -39 -24 -59 -26 -155 -6 -252 86 -564 277
-948 114 -228 308 -540 459 -737 271 -352 587 -687 914 -965 33 -27 64 -55 70
-60 13 -12 217 -172 301 -236 220 -168 553 -370 885 -537 151 -76 232 -114
435 -202 189 -82 766 -282 885 -305 8 -2 15 -4 15 -5 0 -1 7 -3 15 -5 8 -2 69
-17 135 -35 101 -26 246 -60 318 -75 10 -2 27 -7 37 -10 10 -3 31 -7 46 -10
16 -2 63 -10 104 -19 41 -8 102 -20 135 -25 33 -6 74 -13 90 -16 25 -4 205
-31 345 -51 30 -4 106 -12 265 -29 17 -2 71 -6 120 -10 50 -3 106 -8 125 -10
207 -23 944 -23 1180 0 19 1 78 6 130 10 110 9 148 12 210 19 25 3 68 8 95 11
61 7 122 15 155 20 14 2 45 7 70 10 25 3 56 8 70 10 14 2 43 6 65 10 23 3 52
7 65 10 14 3 39 7 55 10 17 3 44 7 60 10 17 3 46 8 65 11 19 3 42 7 50 9 8 2
31 7 50 10 31 5 182 36 251 51 13 3 35 7 49 10 14 2 63 14 110 25 47 12 92 22
100 24 8 2 44 11 80 20 36 9 74 19 85 21 20 4 307 83 395 109 134 39 327 102
495 160 105 37 201 70 215 75 42 13 492 189 539 211 24 11 66 29 94 40 44 18
96 40 162 69 11 5 43 19 70 31 575 250 901 419 1453 753 128 78 249 150 268
161 33 19 193 119 279 173 22 14 56 35 75 47 19 13 80 51 135 86 54 35 107 69
118 74 29 16 570 365 852 550 157 103 432 283 635 415 96 63 177 117 180 120
3 3 13 10 22 15 10 6 109 72 220 147 209 142 235 160 423 289 61 41 175 120
255 174 80 54 180 122 222 151 133 91 288 197 433 296 77 52 253 171 390 265
359 244 558 377 570 382 5 2 19 11 30 20 11 10 76 53 145 96 69 43 148 93 175
110 84 54 364 224 403 245 20 11 51 29 67 40 17 10 41 25 55 33 14 8 93 54
175 102 144 84 171 100 250 145 19 11 50 28 68 39 68 40 193 112 207 121 34
20 417 247 455 269 108 63 356 236 406 283 96 91 108 123 64 171 -77 82 -304
153 -615 193 -54 6 -425 15 -432 9z"/>
</g>
</svg>
